<svg width="21" height="22" viewBox="0 0 21 22" fill="none" xmlns="http://www.w3.org/2000/svg">
<path d="M6.97031 7.03054C6.92949 7.07941 6.89276 7.13032 6.84787 7.17511C5.62551 8.44774 4.58885 9.8568 3.70728 11.3819C3.3971 11.9195 3.11957 12.4733 2.83183 13.0231C2.78694 13.1086 2.74408 13.129 2.65021 13.1025C1.8666 12.8785 1.08298 12.6627 0.299363 12.4407C0.050401 12.3695 -0.0618358 12.1312 0.0340756 11.8869C0.0646856 11.8095 0.10754 11.7342 0.152434 11.6629C1.18705 10.0502 2.54002 8.77557 4.24602 7.89389C5.06432 7.47036 5.92753 7.17104 6.83766 7.00815C6.87644 7.00204 6.91521 7.00204 6.95398 7C6.9601 7.01018 6.96419 7.02036 6.97031 7.03054Z" fill="#E5E5E5"/>
<path d="M5.19962 18.869C5.06289 18.9729 4.93025 19.091 4.78128 19.1826C4.19765 19.545 3.57525 19.8362 2.93652 20.0846C2.01414 20.445 1.08359 20.781 0.15509 21.1272C0.112236 21.1435 0.0653014 21.1516 0 21.1679C0.0755045 20.95 0.140807 20.7525 0.21223 20.557C0.638729 19.3842 1.06931 18.2113 1.62233 17.0894C1.79987 16.731 1.98353 16.3747 2.25493 16.0733C2.27942 16.0468 2.30595 16.0204 2.32432 16C3.27731 16.9529 4.22826 17.8998 5.19962 18.869Z" fill="#E5E5E5"/>
<path d="M19.4201 5.61827C17.9528 4.17256 16.4836 2.72686 15 1.26486C15.2837 1.15287 15.5489 1.04291 15.8183 0.941104C16.804 0.564406 17.8161 0.29359 18.8548 0.13273C19.2732 0.0675711 19.6976 0.0248108 20.1221 0.0024125C20.5384 -0.0199858 20.6567 0.110331 20.6547 0.52979C20.6506 1.24246 20.5261 1.93885 20.3731 2.63319C20.1466 3.6574 19.8282 4.65515 19.4119 5.61827C19.4058 5.63049 19.3997 5.64271 19.3936 5.65289C19.4017 5.64067 19.4119 5.62845 19.4201 5.61827Z" fill="#E5E5E5"/>
<path d="M6.7233 17.9998C6.59035 18.004 6.50725 17.9499 6.43454 17.8774C5.91518 17.3689 5.39167 16.8645 4.87647 16.354C4.29479 15.777 3.72143 15.1897 3.13559 14.6169C3.00471 14.4882 2.97147 14.3533 3.02341 14.2018C3.13767 13.8594 3.25193 13.5128 3.39527 13.1807C4.31765 11.0327 5.59942 9.11297 7.14087 7.36342C8.57222 5.7384 10.1968 4.33543 12.0249 3.17529C12.6731 2.76437 13.3503 2.40325 14.013 2.01723C14.0816 1.9778 14.1106 2.01308 14.1522 2.05252C14.8003 2.70003 15.4506 3.34756 16.0988 3.99715C17.0481 4.9456 17.9975 5.89613 18.949 6.8425C19.0092 6.90269 19.0133 6.94212 18.976 7.01683C18.1657 8.6045 17.1832 10.0759 16.0239 11.4291C15.2906 12.2842 14.495 13.079 13.6578 13.8324C11.7382 15.5591 9.58599 16.9226 7.17618 17.867C7.05154 17.9167 6.92274 17.9562 6.79394 17.9977C6.76278 17.9998 6.72953 17.9977 6.7233 17.9998ZM8.0944 11.6491C8.02585 12.4046 8.72595 12.9275 9.34087 12.9233C10.0326 12.9171 10.6102 12.3465 10.6081 11.6511C10.606 11.068 10.2009 10.3831 9.24114 10.3976C8.61999 10.408 8.0944 10.9725 8.0944 11.6491ZM12.9431 9.29768C13.6744 9.37447 14.2187 8.63563 14.2124 8.0566C14.2083 7.46511 13.691 6.78231 12.9078 6.78854C12.2825 6.79269 11.6551 7.36342 11.6821 8.06697C11.7091 8.78921 12.2098 9.29768 12.9431 9.29768Z" fill="#E5E5E5"/>
<path d="M8 18.164C9.11829 17.6265 10.1937 17.0217 11.2161 16.3213C12.2364 15.6229 13.1874 14.8369 14.0975 14C14.1098 14.0081 14.1241 14.0163 14.1363 14.0244C14.1281 14.0916 14.122 14.1588 14.1098 14.226C13.8057 15.8244 13.0935 17.2274 12.0732 18.4817C11.3283 19.398 10.4529 20.1697 9.44887 20.7948C9.36929 20.8457 9.28562 20.8926 9.19787 20.9272C9.02033 20.9964 8.84892 20.9374 8.77137 20.7643C8.69383 20.5912 8.62852 20.412 8.57547 20.2308C8.3816 19.5568 8.19386 18.8808 8.00408 18.2068C8.00204 18.1987 8.00204 18.1885 8 18.164Z" fill="#E5E5E5"/>
</svg>

