<svg width="20" height="17" viewBox="0 0 20 17" fill="none" xmlns="http://www.w3.org/2000/svg">
<g clip-path="url(#clip0_3_6)">
<path d="M1.47661 0.5C1.75188 0.5 1.95207 0.5 2.15227 0.5C7.15713 0.5 12.162 0.5 17.1669 0.5C18.7309 0.5 19.4941 1.26409 19.4941 2.85491C19.4941 3.70668 19.5066 4.57098 19.4941 5.42276C19.4816 6.67537 18.6558 7.50209 17.4171 7.51461C16.7915 7.52714 16.1784 7.51461 15.5027 7.51461C15.5027 8.49165 15.5027 9.39353 15.5027 10.3079C15.4902 12.8132 13.8011 14.5167 11.3112 14.5292C9.43435 14.5292 7.55752 14.5418 5.6807 14.5292C3.2158 14.5167 1.50164 12.8257 1.50164 10.3706C1.4641 7.10125 1.47661 3.85699 1.47661 0.5ZM15.5403 2.5167C15.5403 3.49374 15.5403 4.4833 15.5403 5.47286C16.1909 5.47286 16.8165 5.47286 17.4421 5.47286C17.4421 4.47077 17.4421 3.49374 17.4421 2.5167C16.7915 2.5167 16.1909 2.5167 15.5403 2.5167Z" fill="#E5E5E5"/>
</g>
<path d="M17.955 15C17.955 15.6514 17.955 16.2777 17.955 16.929C11.9616 16.929 5.99333 16.929 0 16.929C0 16.2777 0 15.6639 0 15C5.9683 15 11.9366 15 17.955 15Z" fill="#E5E5E5"/>
<defs>
<clipPath id="clip0_3_6">
<rect width="19" height="15" fill="white" transform="translate(0.5 0.5)"/>
</clipPath>
</defs>
</svg>
