<svg width="24" height="19" viewBox="0 0 24 19" fill="none" xmlns="http://www.w3.org/2000/svg">
<path d="M11.5001 18.8543C11.3961 18.8062 11.2921 18.7501 11.1802 18.702C10.3325 18.3415 9.86061 17.452 10.0366 16.5465C10.2125 15.6491 11.0042 15 11.9239 15C12.8356 15.008 13.6274 15.6651 13.7953 16.5626C13.9632 17.46 13.4754 18.3495 12.6197 18.702C12.5077 18.7501 12.4038 18.7982 12.2918 18.8463C12.0279 18.8543 11.764 18.8543 11.5001 18.8543Z" fill="#E5E5E5"/>
<path d="M17.3566 12.1725C16.7887 12.7334 16.2449 13.2783 15.7011 13.8152C13.5658 11.7959 10.4868 12.0122 8.63946 13.8072C8.09564 13.2623 7.55182 12.7254 7 12.1805C9.19127 9.6083 14.2216 8.95924 17.3566 12.1725Z" fill="#E5E5E5"/>
<path d="M4.65545 10.2406C4.08764 9.67968 3.54382 9.1428 3 8.59791C7.13463 4.11058 15.156 3.51761 20.0823 8.54983C19.5305 9.09473 18.9707 9.63962 18.4029 10.2005C16.5315 8.4056 14.2363 7.39595 11.5332 7.40396C8.83806 7.41198 6.55082 8.41361 4.65545 10.2406Z" fill="#E5E5E5"/>
<path d="M24 5.05721C23.7201 5.32164 23.4402 5.58607 23.1683 5.85852C22.8964 6.13096 22.6405 6.41944 22.3525 6.73195C19.4335 3.90332 16.0027 2.41289 11.988 2.41289C7.98934 2.41289 4.57448 3.90332 1.73542 6.65182C1.16761 6.0909 0.623792 5.54601 0 4.92099C0.863712 4.24789 1.70343 3.48664 2.63912 2.86162C9.3009 -1.56161 17.89 -0.792353 23.6961 4.72066C23.7921 4.8088 23.896 4.88893 24 4.96906C24 5.00112 24 5.02516 24 5.05721Z" fill="#E5E5E5"/>
</svg>
